<?xml version="1.0" encoding="utf-8"?>
<!-- Generator: Adobe Illustrator 21.0.0, SVG Export Plug-In . SVG Version: 6.00 Build 0)  -->
<svg version="1.1" id="Layer_1" xmlns="http://www.w3.org/2000/svg"  x="0px" y="0px"
	 viewBox="0 0 500 500" style="enable-background:new 0 0 500 500;" xml:space="preserve">
<style type="text/css">
	.st0{fill-rule:evenodd;clip-rule:evenodd;fill:#009F95;}
	.st1{fill:#706F6F;}
</style>
<g>
	<g>
		<g>
			<path class="st0" d="M345.6,188.8c0-29.8-23.7-54.1-53.4-55c-14.1-18-36-29.5-60.6-29.5c-41,0-74.5,32-77,72.5
				C137,186,125,204.4,125,225.6c0,30.5,24.7,55.1,55.1,55.1c6.1,0,11-4.9,11-11c0-6.1-4.9-11-11-11c-18.2,0-33.1-14.9-33.1-33.1
				c0-12.4,6.8-23.6,17.8-29.3l11.1-5.8l0.8-12.4c1.8-29,25.9-51.8,55-51.8c16.9,0,32.7,7.7,43.3,21.1l6.4,8.1l10.3,0.3
				c17.9,0.6,32,15.1,32,33v14.7l13.6,5.6c9.6,4,15.8,13.4,15.8,23.8c0,14.2-11.6,25.7-25.7,25.7c-6.1,0-11,4.9-11,11
				c0,6.1,4.9,11,11,11c26.4,0,47.8-21.4,47.8-47.8C375,213.1,362.9,196.1,345.6,188.8L345.6,188.8z"/>
		</g>
		<path class="st1" d="M303.7,269.3l-2.1-27.9c-0.2-2.4-1.3-4.6-3.1-6.1c-1.8-1.6-4.1-2.3-6.5-2.1l-27.9,2.1
			c-2.4,0.2-4.6,1.3-6.1,3.1c-1.6,1.8-2.3,4.1-2.1,6.5c0.3,4.9,4.6,8.6,9.6,8.2l7.6-0.6l-22.9,32.8l-16.6-16
			c-1.9-1.9-4.6-2.8-7.1-2.5c-2.6,0.3-5,1.7-6.5,3.8L197.8,303c-2.8,4.1-1.8,9.6,2.3,12.4l0,0c1.4,1,3.2,1.6,5.1,1.6
			c2.5,0,5-1,7.1-3.7l16.4-23.9l16.6,16c1.9,1.9,4.5,2.7,7.1,2.4c2.6-0.3,4.9-1.6,6.5-3.8l26.7-38.3l0.4,4.8c0.2,2.4,1.2,4.5,2.9,6
			c2.1,1.8,4.9,2.3,6.7,2.2C300.4,278.4,304.1,274.1,303.7,269.3z"/>
	</g>
	<g>
		<path class="st1" d="M135.6,373.5c0,7-1.9,12.4-5.7,16.1s-9.3,5.6-16.4,5.6h-11.8v-42.5h13c6.6,0,11.7,1.8,15.4,5.5
			C133.8,361.8,135.6,366.9,135.6,373.5z M130.4,373.7c0-5.5-1.4-9.7-4.2-12.5s-6.9-4.2-12.4-4.2h-7.2v33.9h6
			c5.9,0,10.3-1.4,13.3-4.3C128.9,383.6,130.4,379.3,130.4,373.7z"/>
		<path class="st1" d="M163.9,395.1l-1-4.5h-0.2c-1.6,2-3.2,3.3-4.7,4.1c-1.6,0.7-3.5,1.1-5.9,1.1c-3.2,0-5.6-0.8-7.4-2.4
			c-1.8-1.6-2.7-3.9-2.7-6.9c0-6.4,5.1-9.8,15.4-10.1l5.4-0.2v-2c0-2.5-0.5-4.3-1.6-5.5c-1.1-1.2-2.8-1.8-5.2-1.8
			c-2.7,0-5.7,0.8-9,2.4l-1.5-3.7c1.6-0.9,3.3-1.5,5.2-2c1.9-0.5,3.7-0.7,5.6-0.7c3.8,0,6.6,0.8,8.4,2.5c1.8,1.7,2.7,4.4,2.7,8.1
			v21.7H163.9z M153,391.7c3,0,5.4-0.8,7.1-2.5c1.7-1.6,2.6-4,2.6-6.9v-2.9l-4.8,0.2c-3.8,0.1-6.6,0.7-8.3,1.8s-2.5,2.7-2.5,4.9
			c0,1.7,0.5,3.1,1.6,4C149.7,391.3,151.1,391.7,153,391.7z"/>
		<path class="st1" d="M198,386.4c0,3-1.1,5.2-3.3,6.9c-2.2,1.6-5.3,2.4-9.3,2.4c-4.2,0-7.5-0.7-9.9-2v-4.5c1.5,0.8,3.2,1.4,4.9,1.8
			c1.8,0.4,3.4,0.7,5.1,0.7c2.5,0,4.5-0.4,5.8-1.2s2-2,2-3.7c0-1.2-0.5-2.3-1.6-3.2c-1.1-0.9-3.2-1.9-6.3-3.1
			c-3-1.1-5.1-2.1-6.3-2.9s-2.2-1.8-2.8-2.8c-0.6-1-0.9-2.3-0.9-3.7c0-2.6,1.1-4.6,3.2-6.1c2.1-1.5,5-2.3,8.7-2.3
			c3.4,0,6.8,0.7,10,2.1l-1.7,3.9c-3.2-1.3-6.1-2-8.7-2c-2.3,0-4,0.4-5.2,1.1c-1.2,0.7-1.7,1.7-1.7,3c0,0.9,0.2,1.6,0.7,2.2
			c0.4,0.6,1.1,1.2,2.1,1.7s2.8,1.3,5.6,2.4c3.8,1.4,6.3,2.8,7.7,4.2C197.3,382.6,198,384.3,198,386.4z"/>
		<path class="st1" d="M227.6,395.1v-20.6c0-2.6-0.6-4.5-1.8-5.8c-1.2-1.3-3-1.9-5.5-1.9c-3.4,0-5.8,0.9-7.3,2.7s-2.3,4.8-2.3,8.9
			v16.6h-4.8v-45.2h4.8v13.7c0,1.6-0.1,3-0.2,4.1h0.3c0.9-1.5,2.3-2.7,4.1-3.6c1.8-0.9,3.8-1.3,6-1.3c3.9,0,6.8,0.9,8.8,2.8
			c1.9,1.8,2.9,4.8,2.9,8.8v20.8H227.6z"/>
		<path class="st1" d="M257.1,362.8c4.2,0,7.4,1.4,9.7,4.3c2.3,2.9,3.5,6.9,3.5,12.1s-1.2,9.3-3.5,12.2c-2.3,2.9-5.6,4.3-9.7,4.3
			c-2.1,0-4-0.4-5.7-1.1s-3.2-1.9-4.3-3.5h-0.3l-1,4.1h-3.5v-45.2h4.8v11c0,2.5-0.1,4.7-0.2,6.6h0.2
			C249.4,364.4,252.7,362.8,257.1,362.8z M256.4,366.8c-3.3,0-5.7,0.9-7.1,2.8s-2.2,5.1-2.2,9.5s0.7,7.7,2.2,9.6
			c1.5,1.9,3.9,2.9,7.2,2.9c3,0,5.2-1.1,6.6-3.2s2.2-5.3,2.2-9.3c0-4.1-0.7-7.2-2.2-9.3S259.5,366.8,256.4,366.8z"/>
		<path class="st1" d="M306.2,379.2c0,5.2-1.3,9.2-3.9,12.2c-2.6,2.9-6.2,4.4-10.8,4.4c-2.8,0-5.4-0.7-7.6-2
			c-2.2-1.3-3.9-3.3-5.1-5.8s-1.8-5.4-1.8-8.8c0-5.2,1.3-9.2,3.9-12.1c2.6-2.9,6.2-4.3,10.8-4.3c4.5,0,8,1.5,10.6,4.4
			C304.9,370.1,306.2,374.1,306.2,379.2z M282,379.2c0,4.1,0.8,7.2,2.4,9.3c1.6,2.1,4,3.2,7.2,3.2s5.6-1.1,7.2-3.2
			c1.6-2.1,2.5-5.2,2.5-9.3c0-4-0.8-7.1-2.5-9.2c-1.6-2.1-4.1-3.2-7.2-3.2c-3.2,0-5.5,1-7.1,3.1C282.8,372,282,375.1,282,379.2z"/>
		<path class="st1" d="M334.3,395.1l-1-4.5h-0.2c-1.6,2-3.2,3.3-4.7,4.1c-1.6,0.7-3.5,1.1-5.9,1.1c-3.2,0-5.6-0.8-7.4-2.4
			c-1.8-1.6-2.7-3.9-2.7-6.9c0-6.4,5.1-9.8,15.4-10.1l5.4-0.2v-2c0-2.5-0.5-4.3-1.6-5.5c-1.1-1.2-2.8-1.8-5.2-1.8
			c-2.7,0-5.7,0.8-9,2.4l-1.5-3.7c1.6-0.9,3.3-1.5,5.2-2c1.9-0.5,3.7-0.7,5.6-0.7c3.8,0,6.6,0.8,8.4,2.5c1.8,1.7,2.7,4.4,2.7,8.1
			v21.7H334.3z M323.4,391.7c3,0,5.4-0.8,7.1-2.5c1.7-1.6,2.6-4,2.6-6.9v-2.9l-4.8,0.2c-3.8,0.1-6.6,0.7-8.3,1.8s-2.5,2.7-2.5,4.9
			c0,1.7,0.5,3.1,1.6,4C320,391.3,321.5,391.7,323.4,391.7z"/>
		<path class="st1" d="M362.3,362.7c1.4,0,2.7,0.1,3.8,0.3l-0.7,4.5c-1.3-0.3-2.5-0.4-3.5-0.4c-2.6,0-4.8,1-6.6,3.1
			c-1.8,2.1-2.7,4.7-2.7,7.8v17.1h-4.8v-31.8h4l0.6,5.9h0.2c1.2-2.1,2.6-3.7,4.3-4.8S360.3,362.7,362.3,362.7z"/>
		<path class="st1" d="M393.7,390.9h-0.3c-2.2,3.2-5.6,4.9-10,4.9c-4.2,0-7.4-1.4-9.7-4.3s-3.5-6.9-3.5-12.1s1.2-9.3,3.5-12.2
			s5.6-4.4,9.7-4.4c4.3,0,7.6,1.6,9.9,4.7h0.4l-0.2-2.3l-0.1-2.2v-13h4.8v45.2h-3.9L393.7,390.9z M384.1,391.7
			c3.3,0,5.7-0.9,7.2-2.7c1.5-1.8,2.2-4.7,2.2-8.7v-1c0-4.5-0.8-7.7-2.3-9.7c-1.5-1.9-3.9-2.9-7.2-2.9c-2.8,0-5,1.1-6.5,3.3
			c-1.5,2.2-2.3,5.3-2.3,9.3c0,4.1,0.7,7.1,2.2,9.2C379,390.6,381.2,391.7,384.1,391.7z"/>
	</g>
</g>
</svg>
